<?xml version="1.0" encoding="UTF-8"?>
<!DOCTYPE svg PUBLIC "-//W3C//DTD SVG 1.1//EN" "http://www.w3.org/Graphics/SVG/1.1/DTD/svg11.dtd">
<!-- Creator: CorelDRAW 2021 (64-Bit) -->
<svg xmlns="http://www.w3.org/2000/svg" xml:space="preserve" width="0.748571in" height="0.144307in" version="1.1" style="shape-rendering:geometricPrecision; text-rendering:geometricPrecision; image-rendering:optimizeQuality; fill-rule:evenodd; clip-rule:evenodd"
viewBox="0 0 748.59 144.31"
 xmlns:xlink="http://www.w3.org/1999/xlink"
 xmlns:xodm="http://www.corel.com/coreldraw/odm/2003">
 <defs>
  <style type="text/css">
   <![CDATA[
    .fil0 {fill:#F39C12}
    .fil1 {fill:#333235;fill-rule:nonzero}
   ]]>
  </style>
 </defs>
 <g id="Layer_x0020_1">
  <metadata id="CorelCorpID_0Corel-Layer"/>
  <g id="_1466740596080">
   <path class="fil0" d="M82.31 0c14.42,0 27.98,3.71 39.76,10.23 -26.69,4.22 -60.35,12.95 -76.89,17.29 -0.17,0.35 -0.32,0.71 -0.47,1.07 20.72,-3.26 72.13,-11.43 90.44,-9.4 18.01,15.09 29.47,37.76 29.47,63.1 0,8.77 -1.38,17.22 -3.91,25.14l-4.72 0.74c-34.3,5.41 -118.94,18.75 -140.52,13.66l-6.12 -1.44c-5.96,-11.39 -9.33,-24.36 -9.33,-38.11 0,-45.45 36.85,-82.3 82.31,-82.3zm75.79 114.43c-0.24,0.55 -0.48,1.11 -0.72,1.66 -27.76,7.28 -86.74,22.57 -129.19,28.22 -0.4,-0.35 -0.8,-0.7 -1.19,-1.06l-0.02 -0.02 -0.04 -0.04c-0.47,-0.43 -0.94,-0.86 -1.4,-1.3l-0.02 -0.01 -0.07 -0.07c-0.45,-0.43 -0.9,-0.87 -1.34,-1.31 -0.43,-0.43 -0.85,-0.86 -1.27,-1.3l-0.11 -0.11 -0.04 -0.04c-0.42,-0.43 -0.83,-0.88 -1.23,-1.32l-0.08 -0.08 -0.02 -0.03c-0.42,-0.46 -0.83,-0.93 -1.24,-1.39l-0.05 -0.06c-0.43,-0.49 -0.85,-0.99 -1.26,-1.49l-0.02 -0.02 -0.01 -0.02c-0.41,-0.49 -0.81,-0.98 -1.2,-1.48l-0.03 -0.04 -0.01 -0.02 -0.01 -0.02c-0.39,-0.49 -0.77,-0.99 -1.15,-1.49l-0.03 -0.04 -0.04 -0.05c-0.38,-0.51 -0.75,-1.02 -1.12,-1.54l-0.01 -0.02c-0.41,-0.57 -0.81,-1.16 -1.21,-1.74 23.03,5.42 110.23,-8.42 144.13,-13.76zm-63.4 -9.94l0 -33.53c-0.87,-6.06 -6.09,-10.71 -12.39,-10.71 -6.3,0 -11.52,4.66 -12.39,10.72l0 33.52 -30.13 0 0.04 -33.82c1.08,-22.52 19.69,-40.45 42.48,-40.45 22.79,0 41.39,17.93 42.48,40.45l0.03 33.82 -30.12 0z"/>
   <path class="fil1" d="M200.61 116.22l0 -95.87 14.94 0 6.38 19.15 0 76.72 -21.32 0zm66.13 0l-56.49 -72.38 5.3 -23.49 56.49 72.38 -5.3 23.49zm0 0l-5.7 -19.15 0 -76.72 21.32 0 0 95.87 -15.61 0z"/>
   <path id="_1" class="fil1" d="M304.48 116.22l-0.14 -93.29 20.78 0 0 93.29 -20.64 0zm-15.08 -48.48l0 -17.52 50.65 0 0 17.65 -50.65 -0.14z"/>
   <path id="_2" class="fil1" d="M375.63 117.71c-6.79,0 -12.92,-1.52 -18.4,-4.55 -5.48,-3.03 -9.8,-7.17 -12.97,-12.43 -3.17,-5.25 -4.75,-11.13 -4.75,-17.65 0,-6.52 1.58,-12.35 4.75,-17.52 3.17,-5.16 7.47,-9.26 12.9,-12.29 5.43,-3.03 11.59,-4.55 18.47,-4.55 6.88,0 13.04,1.5 18.47,4.48 5.43,2.98 9.73,7.08 12.9,12.29 3.17,5.2 4.75,11.07 4.75,17.58 0,6.52 -1.58,12.41 -4.75,17.65 -3.17,5.25 -7.47,9.39 -12.9,12.43 -5.43,3.03 -11.59,4.55 -18.47,4.55zm0 -18.87c2.99,0 5.61,-0.65 7.88,-1.97 2.26,-1.31 4,-3.17 5.22,-5.57 1.22,-2.4 1.83,-5.14 1.83,-8.22 0,-3.07 -0.63,-5.77 -1.9,-8.08 -1.27,-2.31 -3.01,-4.12 -5.23,-5.43 -2.22,-1.31 -4.82,-1.97 -7.81,-1.97 -2.9,0 -5.48,0.65 -7.74,1.97 -2.26,1.31 -4.03,3.15 -5.3,5.5 -1.27,2.35 -1.9,5.07 -1.9,8.15 0,2.99 0.63,5.68 1.9,8.08 1.27,2.4 3.03,4.26 5.3,5.57 2.26,1.31 4.84,1.97 7.74,1.97z"/>
   <path id="_3" class="fil1" d="M461.71 116.22l0 -37.62c0,-3.44 -1.06,-6.22 -3.19,-8.35 -2.13,-2.13 -4.87,-3.19 -8.21,-3.19 -2.26,0 -4.23,0.47 -5.91,1.43 -1.67,0.95 -3.01,2.31 -4,4.07 -1,1.77 -1.5,3.78 -1.5,6.04l-8.01 -3.94c0,-5.16 1.13,-9.69 3.39,-13.58 2.26,-3.89 5.41,-6.9 9.44,-9.03 4.03,-2.13 8.58,-3.19 13.65,-3.19 4.89,0 9.21,1.15 12.97,3.46 3.76,2.31 6.72,5.37 8.89,9.17 2.17,3.8 3.26,7.96 3.26,12.49l0 42.23 -20.78 0zm-43.45 0l-0.14 -65.99 20.78 0 0 65.99 -20.64 0z"/>
   <path id="_4" class="fil1" d="M519.41 117.58c-6.07,0 -11.47,-1.49 -16.23,-4.48 -4.75,-2.99 -8.51,-7.06 -11.27,-12.22 -2.76,-5.16 -4.14,-11.05 -4.14,-17.65 0,-6.61 1.38,-12.49 4.14,-17.65 2.76,-5.16 6.52,-9.23 11.27,-12.22 4.76,-2.99 10.16,-4.48 16.23,-4.48 4.44,0 8.44,0.86 12.02,2.58 3.58,1.72 6.5,4.1 8.76,7.13 2.26,3.03 3.53,6.5 3.8,10.39l0 28.52c-0.27,3.89 -1.52,7.36 -3.74,10.39 -2.22,3.03 -5.14,5.41 -8.76,7.13 -3.62,1.72 -7.65,2.58 -12.09,2.58zm4.21 -18.74c4.44,0 8.01,-1.47 10.73,-4.41 2.72,-2.94 4.07,-6.67 4.07,-11.2 0,-3.08 -0.61,-5.8 -1.83,-8.15 -1.22,-2.35 -2.94,-4.19 -5.16,-5.5 -2.22,-1.31 -4.78,-1.97 -7.67,-1.97 -2.9,0 -5.46,0.65 -7.67,1.97 -2.22,1.31 -3.98,3.15 -5.3,5.5 -1.31,2.35 -1.97,5.07 -1.97,8.15 0,2.99 0.63,5.66 1.9,8.01 1.26,2.35 3.03,4.21 5.3,5.57 2.26,1.36 4.8,2.04 7.6,2.04zm13.99 17.38l0 -17.79 3.12 -16.02 -3.12 -16.02 0 -16.16 20.37 0 0 65.99 -20.37 0z"/>
   <path id="_5" class="fil1" d="M568.83 116.22l-0.14 -65.99 20.78 0 0 65.99 -20.64 0zm20.64 -36.26l-8.69 -6.79c1.72,-7.7 4.62,-13.67 8.69,-17.93 4.07,-4.26 9.73,-6.38 16.98,-6.38 3.17,0 5.95,0.48 8.35,1.43 2.4,0.95 4.5,2.42 6.32,4.41l-12.36 15.61c-0.91,-1 -2.04,-1.76 -3.39,-2.31 -1.36,-0.54 -2.9,-0.81 -4.62,-0.81 -3.44,0 -6.18,1.06 -8.22,3.19 -2.04,2.13 -3.06,5.32 -3.06,9.57z"/>
   <path id="_6" class="fil1" d="M652.73 117.71c-6.79,0 -12.95,-1.49 -18.47,-4.48 -5.52,-2.99 -9.87,-7.11 -13.04,-12.35 -3.17,-5.25 -4.75,-11.14 -4.75,-17.65 0,-6.61 1.61,-12.52 4.82,-17.72 3.21,-5.2 7.58,-9.3 13.1,-12.29 5.52,-2.99 11.72,-4.48 18.61,-4.48 5.16,0 9.89,0.89 14.19,2.65 4.3,1.76 8.12,4.41 11.47,7.95l-13.31 13.31c-1.54,-1.72 -3.33,-2.99 -5.36,-3.8 -2.04,-0.81 -4.37,-1.22 -6.99,-1.22 -2.99,0 -5.64,0.65 -7.95,1.97 -2.31,1.31 -4.12,3.12 -5.43,5.43 -1.31,2.31 -1.97,5 -1.97,8.08 0,3.08 0.66,5.8 1.97,8.15 1.31,2.35 3.15,4.21 5.5,5.57 2.35,1.36 4.98,2.04 7.88,2.04 2.71,0 5.13,-0.47 7.26,-1.43 2.13,-0.95 3.96,-2.28 5.5,-4l13.17 13.31c-3.44,3.62 -7.33,6.36 -11.68,8.21 -4.35,1.86 -9.19,2.78 -14.53,2.78z"/>
   <path id="_7" class="fil1" d="M727.81 116.22l0 -37.62c0,-3.44 -1.06,-6.22 -3.19,-8.35 -2.13,-2.13 -4.87,-3.19 -8.21,-3.19 -2.26,0 -4.23,0.47 -5.91,1.43 -1.67,0.95 -3.01,2.31 -4,4.07 -1,1.77 -1.5,3.78 -1.5,6.04l-8.01 -3.94c0,-5.16 1.08,-9.69 3.26,-13.58 2.17,-3.89 5.2,-6.9 9.1,-9.03 3.89,-2.13 8.33,-3.19 13.31,-3.19 5.25,0 9.82,1.06 13.72,3.19 3.89,2.13 6.9,5.07 9.03,8.83 2.13,3.76 3.19,8.13 3.19,13.11l0 42.23 -20.78 0zm-43.45 0l-0.14 -98.59 20.78 0 0 98.59 -20.64 0z"/>
  </g>
 </g>
</svg>
