<?xml version="1.0" encoding="UTF-8"?>
<!DOCTYPE svg PUBLIC "-//W3C//DTD SVG 1.1//EN" "http://www.w3.org/Graphics/SVG/1.1/DTD/svg11.dtd">
<!-- Creator: CorelDRAW 2021 (64-Bit) -->
<svg xmlns="http://www.w3.org/2000/svg" xml:space="preserve" width="0.164602in" height="0.144307in" version="1.1" style="shape-rendering:geometricPrecision; text-rendering:geometricPrecision; image-rendering:optimizeQuality; fill-rule:evenodd; clip-rule:evenodd"
viewBox="0 0 36.2 31.73"
 xmlns:xlink="http://www.w3.org/1999/xlink"
 xmlns:xodm="http://www.corel.com/coreldraw/odm/2003">
 <defs>
  <style type="text/css">
   <![CDATA[
    .fil0 {fill:#F39C12}
   ]]>
  </style>
 </defs>
 <g id="Layer_x0020_1">
  <metadata id="CorelCorpID_0Corel-Layer"/>
  <path class="fil0" d="M18.1 0c3.17,0 6.15,0.82 8.74,2.25 -5.87,0.93 -13.27,2.85 -16.91,3.8 -0.04,0.08 -0.07,0.16 -0.1,0.24 4.56,-0.72 15.86,-2.51 19.89,-2.07 3.96,3.32 6.48,8.3 6.48,13.88 0,1.93 -0.3,3.79 -0.86,5.53l-1.04 0.16c-7.54,1.19 -26.15,4.12 -30.9,3l-1.35 -0.32c-1.31,-2.51 -2.05,-5.36 -2.05,-8.38 0,-9.99 8.1,-18.1 18.1,-18.1zm16.67 25.16c-0.05,0.12 -0.1,0.24 -0.16,0.36 -6.1,1.6 -19.07,4.96 -28.41,6.21 -0.09,-0.08 -0.17,-0.15 -0.26,-0.23l-0.01 -0 -0.01 -0.01c-0.1,-0.09 -0.21,-0.19 -0.31,-0.29l-0 -0 -0.01 -0.01c-0.1,-0.09 -0.2,-0.19 -0.3,-0.29 -0.1,-0.09 -0.19,-0.19 -0.28,-0.29l-0.02 -0.02 -0.01 -0.01c-0.09,-0.1 -0.18,-0.19 -0.27,-0.29l-0.02 -0.02 -0.01 -0.01c-0.09,-0.1 -0.18,-0.2 -0.27,-0.31l-0.01 -0.01c-0.09,-0.11 -0.19,-0.22 -0.28,-0.33l-0 -0 -0 -0c-0.09,-0.11 -0.18,-0.22 -0.26,-0.33l-0.01 -0.01 -0 -0 -0 -0c-0.09,-0.11 -0.17,-0.22 -0.25,-0.33l-0.01 -0.01 -0.01 -0.01c-0.08,-0.11 -0.17,-0.22 -0.25,-0.34l-0 -0c-0.09,-0.13 -0.18,-0.25 -0.27,-0.38 5.06,1.19 24.24,-1.85 31.69,-3.03zm-13.94 -2.19l0 -7.37c-0.19,-1.33 -1.34,-2.36 -2.72,-2.36 -1.39,0 -2.53,1.03 -2.72,2.36l0 7.37 -6.62 0 0.01 -7.44c0.24,-4.95 4.33,-8.89 9.34,-8.89 5.01,0 9.1,3.94 9.34,8.89l0.01 7.44 -6.62 0z"/>
 </g>
</svg>
