<?xml version="1.0" encoding="UTF-8"?>
<!DOCTYPE svg PUBLIC "-//W3C//DTD SVG 1.1//EN" "http://www.w3.org/Graphics/SVG/1.1/DTD/svg11.dtd">
<!-- Creator: CorelDRAW 2021 (64-Bit) -->
<svg xmlns="http://www.w3.org/2000/svg" xml:space="preserve" width="0.613965in" height="0.118362in" version="1.1" style="shape-rendering:geometricPrecision; text-rendering:geometricPrecision; image-rendering:optimizeQuality; fill-rule:evenodd; clip-rule:evenodd"
viewBox="0 0 96.68 18.64"
 xmlns:xlink="http://www.w3.org/1999/xlink"
 xmlns:xodm="http://www.corel.com/coreldraw/odm/2003">
 <defs>
  <style type="text/css">
   <![CDATA[
    .fil0 {fill:#FFCF1A}
    .fil1 {fill:white;fill-rule:nonzero}
   ]]>
  </style>
 </defs>
 <g id="Layer_x0020_1">
  <metadata id="CorelCorpID_0Corel-Layer"/>
  <g id="_2069350921840">
   <path class="fil0" d="M10.63 0c1.86,0 3.61,0.48 5.14,1.32 -3.45,0.54 -7.79,1.67 -9.93,2.23 -0.02,0.05 -0.04,0.09 -0.06,0.14 2.68,-0.42 9.32,-1.48 11.68,-1.21 2.33,1.95 3.81,4.88 3.81,8.15 0,1.13 -0.18,2.22 -0.51,3.25l-0.61 0.1c-4.43,0.7 -15.36,2.42 -18.15,1.76l-0.79 -0.19c-0.77,-1.47 -1.21,-3.15 -1.21,-4.92 0,-5.87 4.76,-10.63 10.63,-10.63zm9.79 14.78c-0.03,0.07 -0.06,0.14 -0.09,0.21 -3.59,0.94 -11.2,2.91 -16.68,3.64 -0.05,-0.05 -0.1,-0.09 -0.15,-0.14l-0 -0 -0 -0c-0.06,-0.06 -0.12,-0.11 -0.18,-0.17l-0 -0 -0.01 -0.01c-0.06,-0.06 -0.12,-0.11 -0.17,-0.17 -0.06,-0.06 -0.11,-0.11 -0.16,-0.17l-0.01 -0.01 -0 -0.01c-0.05,-0.06 -0.11,-0.11 -0.16,-0.17l-0.01 -0.01 -0 -0c-0.05,-0.06 -0.11,-0.12 -0.16,-0.18l-0.01 -0.01c-0.06,-0.06 -0.11,-0.13 -0.16,-0.19l-0 -0 -0 -0c-0.05,-0.06 -0.1,-0.13 -0.15,-0.19l-0 -0 -0 -0 -0 -0c-0.05,-0.06 -0.1,-0.13 -0.15,-0.19l-0 -0.01 -0 -0.01c-0.05,-0.07 -0.1,-0.13 -0.15,-0.2l-0 -0c-0.05,-0.07 -0.1,-0.15 -0.16,-0.23 2.97,0.7 14.24,-1.09 18.61,-1.78zm-8.19 -1.28l0 -4.33c-0.11,-0.78 -0.79,-1.38 -1.6,-1.38 -0.81,0 -1.49,0.6 -1.6,1.38l0 4.33 -3.89 0 0 -4.37c0.14,-2.91 2.54,-5.22 5.49,-5.22 2.94,0 5.35,2.31 5.49,5.22l0 4.37 -3.89 0z"/>
   <path class="fil1" d="M25.91 15.01l0 -12.38 1.93 0 0.82 2.47 0 9.91 -2.75 0zm8.54 0l-7.3 -9.35 0.68 -3.03 7.3 9.35 -0.68 3.03zm0 0l-0.74 -2.47 0 -9.91 2.75 0 0 12.38 -2.02 0z"/>
   <path id="_1" class="fil1" d="M39.32 15.01l-0.02 -12.05 2.68 0 0 12.05 -2.67 0zm-1.95 -6.26l0 -2.26 6.54 0 0 2.28 -6.54 -0.02z"/>
   <path id="_2" class="fil1" d="M48.51 15.2c-0.88,0 -1.67,-0.2 -2.38,-0.59 -0.71,-0.39 -1.27,-0.93 -1.68,-1.6 -0.41,-0.68 -0.61,-1.44 -0.61,-2.28 0,-0.84 0.2,-1.6 0.61,-2.26 0.41,-0.67 0.96,-1.2 1.67,-1.59 0.7,-0.39 1.5,-0.59 2.38,-0.59 0.89,0 1.68,0.19 2.39,0.58 0.7,0.39 1.26,0.92 1.67,1.59 0.41,0.67 0.61,1.43 0.61,2.27 0,0.84 -0.2,1.6 -0.61,2.28 -0.41,0.68 -0.96,1.21 -1.67,1.6 -0.7,0.39 -1.5,0.59 -2.39,0.59zm0 -2.44c0.39,0 0.73,-0.08 1.02,-0.25 0.29,-0.17 0.52,-0.41 0.68,-0.72 0.16,-0.31 0.24,-0.66 0.24,-1.06 0,-0.4 -0.08,-0.75 -0.25,-1.04 -0.16,-0.3 -0.39,-0.53 -0.68,-0.7 -0.29,-0.17 -0.62,-0.25 -1.01,-0.25 -0.37,0 -0.71,0.08 -1,0.25 -0.29,0.17 -0.52,0.41 -0.68,0.71 -0.16,0.3 -0.25,0.66 -0.25,1.05 0,0.39 0.08,0.73 0.25,1.04 0.16,0.31 0.39,0.55 0.68,0.72 0.29,0.17 0.63,0.25 1,0.25z"/>
   <path id="_3" class="fil1" d="M59.63 15.01l0 -4.86c0,-0.44 -0.14,-0.8 -0.41,-1.08 -0.28,-0.27 -0.63,-0.41 -1.06,-0.41 -0.29,0 -0.55,0.06 -0.76,0.18 -0.22,0.12 -0.39,0.3 -0.52,0.53 -0.13,0.23 -0.19,0.49 -0.19,0.78l-1.03 -0.51c0,-0.67 0.15,-1.25 0.44,-1.75 0.29,-0.5 0.7,-0.89 1.22,-1.17 0.52,-0.27 1.11,-0.41 1.76,-0.41 0.63,0 1.19,0.15 1.68,0.45 0.48,0.3 0.87,0.69 1.15,1.18 0.28,0.49 0.42,1.03 0.42,1.61l0 5.45 -2.68 0zm-5.61 0l-0.02 -8.52 2.68 0 0 8.52 -2.67 0z"/>
   <path id="_4" class="fil1" d="M67.08 15.19c-0.78,0 -1.48,-0.19 -2.1,-0.58 -0.61,-0.39 -1.1,-0.91 -1.46,-1.58 -0.36,-0.67 -0.54,-1.43 -0.54,-2.28 0,-0.85 0.18,-1.61 0.54,-2.28 0.36,-0.67 0.84,-1.19 1.46,-1.58 0.61,-0.39 1.31,-0.58 2.1,-0.58 0.57,0 1.09,0.11 1.55,0.33 0.46,0.22 0.84,0.53 1.13,0.92 0.29,0.39 0.46,0.84 0.49,1.34l0 3.68c-0.04,0.5 -0.2,0.95 -0.48,1.34 -0.29,0.39 -0.66,0.7 -1.13,0.92 -0.47,0.22 -0.99,0.33 -1.56,0.33zm0.54 -2.42c0.57,0 1.03,-0.19 1.39,-0.57 0.35,-0.38 0.53,-0.86 0.53,-1.45 0,-0.4 -0.08,-0.75 -0.24,-1.05 -0.16,-0.3 -0.38,-0.54 -0.67,-0.71 -0.29,-0.17 -0.62,-0.25 -0.99,-0.25 -0.37,0 -0.7,0.08 -0.99,0.25 -0.29,0.17 -0.51,0.41 -0.68,0.71 -0.17,0.3 -0.25,0.66 -0.25,1.05 0,0.39 0.08,0.73 0.25,1.03 0.16,0.3 0.39,0.54 0.68,0.72 0.29,0.18 0.62,0.26 0.98,0.26zm1.81 2.24l0 -2.3 0.4 -2.07 -0.4 -2.07 0 -2.09 2.63 0 0 8.52 -2.63 0z"/>
   <path id="_5" class="fil1" d="M73.46 15.01l-0.02 -8.52 2.68 0 0 8.52 -2.67 0zm2.67 -4.68l-1.12 -0.88c0.22,-0.99 0.6,-1.76 1.12,-2.31 0.53,-0.55 1.26,-0.82 2.19,-0.82 0.41,0 0.77,0.06 1.08,0.18 0.31,0.12 0.58,0.31 0.82,0.57l-1.6 2.02c-0.12,-0.13 -0.26,-0.23 -0.44,-0.3 -0.18,-0.07 -0.37,-0.1 -0.6,-0.1 -0.44,0 -0.8,0.14 -1.06,0.41 -0.26,0.28 -0.39,0.69 -0.39,1.24z"/>
   <path id="_6" class="fil1" d="M84.3 15.2c-0.88,0 -1.67,-0.19 -2.39,-0.58 -0.71,-0.39 -1.27,-0.92 -1.68,-1.6 -0.41,-0.68 -0.61,-1.44 -0.61,-2.28 0,-0.85 0.21,-1.62 0.62,-2.29 0.41,-0.67 0.98,-1.2 1.69,-1.59 0.71,-0.39 1.51,-0.58 2.4,-0.58 0.67,0 1.28,0.11 1.83,0.34 0.56,0.23 1.05,0.57 1.48,1.03l-1.72 1.72c-0.2,-0.22 -0.43,-0.39 -0.69,-0.49 -0.26,-0.11 -0.56,-0.16 -0.9,-0.16 -0.39,0 -0.73,0.08 -1.03,0.25 -0.3,0.17 -0.53,0.4 -0.7,0.7 -0.17,0.3 -0.25,0.65 -0.25,1.04 0,0.4 0.08,0.75 0.25,1.05 0.17,0.3 0.41,0.54 0.71,0.72 0.3,0.18 0.64,0.26 1.02,0.26 0.35,0 0.66,-0.06 0.94,-0.18 0.27,-0.12 0.51,-0.3 0.71,-0.52l1.7 1.72c-0.44,0.47 -0.95,0.82 -1.51,1.06 -0.56,0.24 -1.19,0.36 -1.88,0.36z"/>
   <path id="_7" class="fil1" d="M94 15.01l0 -4.86c0,-0.44 -0.14,-0.8 -0.41,-1.08 -0.28,-0.27 -0.63,-0.41 -1.06,-0.41 -0.29,0 -0.55,0.06 -0.76,0.18 -0.22,0.12 -0.39,0.3 -0.52,0.53 -0.13,0.23 -0.19,0.49 -0.19,0.78l-1.03 -0.51c0,-0.67 0.14,-1.25 0.42,-1.75 0.28,-0.5 0.67,-0.89 1.17,-1.17 0.5,-0.27 1.08,-0.41 1.72,-0.41 0.68,0 1.27,0.14 1.77,0.41 0.5,0.28 0.89,0.66 1.17,1.14 0.27,0.49 0.41,1.05 0.41,1.69l0 5.45 -2.68 0zm-5.61 0l-0.02 -12.73 2.68 0 0 12.73 -2.67 0z"/>
  </g>
 </g>
</svg>
